<svg width="59" height="58" viewBox="0 0 59 58" fill="none" xmlns="http://www.w3.org/2000/svg">
<g id="ic:baseline-whatsapp">
<path id="Vector" d="M46.4866 11.8658C44.2728 9.62782 41.636 7.85336 38.7299 6.64596C35.8238 5.43855 32.7065 4.82236 29.56 4.83333C16.3761 4.83333 5.63098 15.5875 5.63098 28.7825C5.63098 33.0117 6.74171 37.12 8.81829 40.745L5.43781 53.1667L18.1146 49.8317C21.6159 51.7408 25.5517 52.7558 29.56 52.7558C42.7439 52.7558 53.489 42.0017 53.489 28.8067C53.489 22.4025 51.0019 16.385 46.4866 11.8658ZM29.56 48.6958C25.9863 48.6958 22.4851 47.7292 19.4185 45.9167L18.6941 45.4817L11.1605 47.4633L13.1646 40.1167L12.6817 39.3675C10.6963 36.1943 9.64202 32.5265 9.63927 28.7825C9.63927 17.8108 18.5734 8.86917 29.5359 8.86917C34.848 8.86917 39.8463 10.9475 43.589 14.7175C45.4422 16.5637 46.9108 18.7598 47.9098 21.1783C48.9087 23.5968 49.418 26.1897 49.4083 28.8067C49.4566 39.7783 40.5224 48.6958 29.56 48.6958ZM40.4741 33.8092C39.8705 33.5192 36.9246 32.0692 36.3934 31.8517C35.838 31.6583 35.4517 31.5617 35.0412 32.1417C34.6307 32.7458 33.4959 34.0992 33.1578 34.4858C32.8198 34.8967 32.4576 34.945 31.8539 34.6308C31.2502 34.3408 29.3185 33.6883 27.0488 31.6583C25.2619 30.0633 24.0788 28.1058 23.7166 27.5017C23.3785 26.8975 23.6683 26.5833 23.9822 26.2692C24.2478 26.0033 24.5859 25.5683 24.8756 25.23C25.1654 24.8917 25.2861 24.6258 25.4793 24.2392C25.6724 23.8283 25.5759 23.49 25.431 23.2C25.2861 22.91 24.0788 19.9617 23.5959 18.7533C23.1129 17.5933 22.6059 17.7383 22.2437 17.7142H21.0846C20.6741 17.7142 20.0463 17.8592 19.491 18.4633C18.9598 19.0675 17.4144 20.5175 17.4144 23.4658C17.4144 26.4142 19.5634 29.2658 19.8532 29.6525C20.1429 30.0633 24.0788 36.105 30.0671 38.6908C31.4917 39.3192 32.6024 39.6817 33.4717 39.9475C34.8963 40.4067 36.2002 40.3342 37.2385 40.1892C38.3976 40.02 40.788 38.7392 41.271 37.3375C41.778 35.9358 41.778 34.7517 41.609 34.4858C41.44 34.22 41.0778 34.0992 40.4741 33.8092Z" fill="#FAFAFA"/>
</g>
</svg>
