<svg width="58" height="58" viewBox="0 0 58 58" fill="none" xmlns="http://www.w3.org/2000/svg">
<g id="material-symbols:mail">
<path id="Vector" d="M9.70729 48.3334C8.37924 48.3334 7.24275 47.8605 6.29783 46.9148C5.3529 45.969 4.87963 44.8308 4.87802 43.5V14.5C4.87802 13.1709 5.35129 12.0334 6.29783 11.0877C7.24436 10.142 8.38085 9.6683 9.70729 9.66669H48.3414C49.6695 9.66669 50.8068 10.1404 51.7533 11.0877C52.6998 12.035 53.1723 13.1725 53.1707 14.5V43.5C53.1707 44.8292 52.6982 45.9674 51.7533 46.9148C50.8084 47.8621 49.6711 48.335 48.3414 48.3334H9.70729ZM29.0244 31.4167L48.3414 19.3334V14.5L29.0244 26.5834L9.70729 14.5V19.3334L29.0244 31.4167Z" fill="#FAFAFA"/>
</g>
</svg>
