<svg width="58" height="58" viewBox="0 0 58 58" fill="none" xmlns="http://www.w3.org/2000/svg">
<g id="mdi:instagram">
<path id="Vector" d="M18.8342 4.83331H39.1171C46.8439 4.83331 53.122 11.1166 53.122 18.85V39.15C53.122 42.8674 51.6465 46.4326 49.02 49.0613C46.3936 51.6899 42.8314 53.1666 39.1171 53.1666H18.8342C11.1073 53.1666 4.82928 46.8833 4.82928 39.15V18.85C4.82928 15.1325 6.30479 11.5673 8.93122 8.9387C11.5576 6.31007 15.1198 4.83331 18.8342 4.83331ZM18.3512 9.66665C16.0458 9.66665 13.8348 10.5833 12.2046 12.2148C10.5744 13.8464 9.65855 16.0593 9.65855 18.3666V39.6333C9.65855 44.4425 13.5461 48.3333 18.3512 48.3333H39.6C41.9055 48.3333 44.1165 47.4167 45.7467 45.7851C47.3769 44.1536 48.2927 41.9407 48.2927 39.6333V18.3666C48.2927 13.5575 44.4051 9.66665 39.6 9.66665H18.3512ZM41.6525 13.2916C42.453 13.2916 43.2207 13.6099 43.7867 14.1764C44.3528 14.7429 44.6707 15.5113 44.6707 16.3125C44.6707 17.1137 44.3528 17.882 43.7867 18.4485C43.2207 19.015 42.453 19.3333 41.6525 19.3333C40.852 19.3333 40.0842 19.015 39.5182 18.4485C38.9522 17.882 38.6342 17.1137 38.6342 16.3125C38.6342 15.5113 38.9522 14.7429 39.5182 14.1764C40.0842 13.6099 40.852 13.2916 41.6525 13.2916ZM28.9756 16.9166C32.1776 16.9166 35.2485 18.1897 37.5126 20.4558C39.7768 22.7218 41.0488 25.7953 41.0488 29C41.0488 32.2047 39.7768 35.2781 37.5126 37.5442C35.2485 39.8103 32.1776 41.0833 28.9756 41.0833C25.7736 41.0833 22.7028 39.8103 20.4386 37.5442C18.1744 35.2781 16.9025 32.2047 16.9025 29C16.9025 25.7953 18.1744 22.7218 20.4386 20.4558C22.7028 18.1897 25.7736 16.9166 28.9756 16.9166ZM28.9756 21.75C27.0544 21.75 25.2119 22.5138 23.8534 23.8735C22.4949 25.2331 21.7317 27.0772 21.7317 29C21.7317 30.9228 22.4949 32.7669 23.8534 34.1265C25.2119 35.4861 27.0544 36.25 28.9756 36.25C30.8968 36.25 32.7393 35.4861 34.0978 34.1265C35.4563 32.7669 36.2195 30.9228 36.2195 29C36.2195 27.0772 35.4563 25.2331 34.0978 23.8735C32.7393 22.5138 30.8968 21.75 28.9756 21.75Z" fill="#FAFAFA"/>
</g>
</svg>
